HIERARCHY
ROOT Pelvis
{
	OFFSET -0.217368 -24.078917 2.858379
	CHANNELS 6 Xposition Yposition Zposition Zrotation Yrotation Xrotation 
	JOINT Left_hip
	{
		OFFSET 5.858135 -8.228005 -1.766408
		CHANNELS 3 Zrotation Yrotation Xrotation
		JOINT Left_knee
		{
			OFFSET 4.345143 -38.646942 0.803700
			CHANNELS 3 Zrotation Yrotation Xrotation
			JOINT Left_ankle
			{
				OFFSET -1.479033 -42.687447 -3.742800
				CHANNELS 3 Zrotation Yrotation Xrotation
				JOINT Left_foot
				{
					OFFSET 4.105436 -6.028605 12.204244
					CHANNELS 3 Zrotation Yrotation Xrotation
					End Site
					{
						OFFSET 0.000000 0.000000 0.000000
					}
				}
			}
		}
	}
	JOINT Right_hip
	{
		OFFSET -6.030973 -9.051328 -1.354253
		CHANNELS 3 Zrotation Yrotation Xrotation
		JOINT Right_knee
		{
			OFFSET -4.325663 -38.368790 -0.484304
			CHANNELS 3 Zrotation Yrotation Xrotation
			JOINT Right_ankle
			{
				OFFSET 1.905555 -42.004566 -3.456167
				CHANNELS 3 Zrotation Yrotation Xrotation
				JOINT Right_foot
				{
					OFFSET -3.483987 -6.210554 13.032330
					CHANNELS 3 Zrotation Yrotation Xrotation
					End Site
					{
						OFFSET 0.000000 0.000000 0.000000
					}
				}
			}
		}
	}
	JOINT Spine1
	{
		OFFSET 0.443945 12.440353 -3.838522
		CHANNELS 3 Zrotation Yrotation Xrotation
		JOINT Spine2
		{
			OFFSET 0.448844 13.795640 2.682033
			CHANNELS 3 Zrotation Yrotation Xrotation
			JOINT Spine3
			{
				OFFSET -0.226460 5.603239 0.285504
				CHANNELS 3 Zrotation Yrotation Xrotation
				JOINT Neck
				{
					OFFSET -1.339018 21.163553 -3.346758
					CHANNELS 3 Zrotation Yrotation Xrotation
					JOINT Head
					{
						OFFSET 1.011321 8.893734 5.040987
						CHANNELS 3 Zrotation Yrotation Xrotation
						End Site
						{
							OFFSET 0.000000 0.000000 0.000000
						}
					}
				}
				JOINT Left_collar
				{
					OFFSET 7.170247 11.399971 -1.889817
					CHANNELS 3 Zrotation Yrotation Xrotation
					JOINT Left_shoulder
					{
						OFFSET 12.292140 4.520507 -1.904600
						CHANNELS 3 Zrotation Yrotation Xrotation
						JOINT Left_elbow
						{
							OFFSET 25.533188 -1.564902 -2.294648
							CHANNELS 3 Zrotation Yrotation Xrotation
							JOINT Left_wrist
							{
								OFFSET 26.570929 1.269810 -0.737473
								CHANNELS 3 Zrotation Yrotation Xrotation
								JOINT Left_palm
								{
									OFFSET 8.669054 -1.063602 -1.559429
									CHANNELS 3 Zrotation Yrotation Xrotation
									End Site
									{
										OFFSET 0.000000 0.000000 0.000000
									}
								}
							}
						}
					}
				}
				JOINT Right_collar
				{
					OFFSET -8.295364 11.247234 -2.370738
					CHANNELS 3 Zrotation Yrotation Xrotation
					JOINT Right_shoulder
					{
						OFFSET -11.322830 4.685326 -0.847207
						CHANNELS 3 Zrotation Yrotation Xrotation
						JOINT Right_elbow
						{
							OFFSET -26.012751 -1.436928 -3.126872
							CHANNELS 3 Zrotation Yrotation Xrotation
							JOINT Right_wrist
							{
								OFFSET -26.910841 0.679372 -0.602677
								CHANNELS 3 Zrotation Yrotation Xrotation
								JOINT Right_palm
								{
									OFFSET -8.875370 -0.865157 -1.010708
									CHANNELS 3 Zrotation Yrotation Xrotation
									End Site
									{
										OFFSET 0.000000 0.000000 0.000000
									}
								}
							}
						}
					}
				}
			}
		}
	}
}
MOTION
Frames: 12
Frame Time: 0.016667
-0.271883 30.321508 -4.244923 -2.611824 5.145670 -13.566358 20.496742 7.397065 -74.908586 -24.859388 23.811831 83.907898 9.366376 19.196967 2.013796 0.000000 0.000000 0.000000 -23.116277 -7.563457 -70.135789 23.933073 -21.432698 82.372407 -6.088478 -15.570506 3.897338 0.000000 0.000000 0.000000 -0.635482 -1.522623 41.454369 3.656739 0.174961 -31.606190 1.385150 2.013947 22.805720 -0.404687 1.488004 -17.517417 0.000000 0.000000 0.000000 -18.794038 -25.720800 12.146123 -30.084827 -27.725191 2.980985 -17.559555 -52.932677 10.840468 0.000000 0.000000 0.000000 0.000000 0.000000 0.000000 0.845884 27.112595 9.730434 7.707232 29.934667 -0.197299 -15.241780 72.076647 -8.356235 0.000000 0.000000 0.000000 0.000000 0.000000 0.000000 
-0.273383 30.270716 -4.341503 -2.538775 4.914267 -14.587830 19.840932 6.786135 -73.969688 -23.319227 22.481275 84.907674 9.577010 19.575342 1.368495 0.000000 0.000000 0.000000 -22.031682 -6.791510 -69.813452 22.172771 -20.086010 84.007458 -6.435126 -16.290916 3.574242 0.000000 0.000000 0.000000 -0.293855 -1.723095 42.994508 3.246830 0.250039 -31.678783 1.040233 2.426893 23.477639 -0.002826 1.142023 -15.707827 0.000000 0.000000 0.000000 -17.554168 -25.805193 11.967855 -30.731181 -28.371023 3.237674 -13.821435 -53.580283 9.078418 0.000000 0.000000 0.000000 0.000000 0.000000 0.000000 1.233058 26.133120 9.421765 10.641574 27.987733 0.266642 -9.755529 72.656390 -4.460085 0.000000 0.000000 0.000000 0.000000 0.000000 0.000000 
-0.275143 30.344332 -4.432377 -2.400548 4.828807 -15.121946 19.029218 6.119602 -73.374253 -22.012556 21.304377 85.735494 10.072407 20.503293 0.794605 0.000000 0.000000 0.000000 -21.318788 -6.305006 -69.727304 20.924737 -19.094682 85.223342 -6.620279 -16.714803 3.833527 0.000000 0.000000 0.000000 -0.054716 -1.838395 43.394951 2.877584 0.310247 -31.604350 0.610543 2.431285 24.187691 0.375381 0.817651 -14.269572 0.000000 0.000000 0.000000 -16.527469 -25.975877 11.875709 -30.668000 -28.736300 3.317449 -12.466492 -54.545628 8.564893 0.000000 0.000000 0.000000 0.000000 0.000000 0.000000 1.595327 25.538464 9.252145 12.734863 26.722905 0.539447 -2.375590 73.736383 0.910271 0.000000 0.000000 0.000000 0.000000 0.000000 0.000000 
-0.266572 30.319262 -4.532345 -2.214256 4.599991 -16.034680 18.256459 5.468006 -72.518971 -20.670590 20.138735 86.828167 10.471837 21.263426 0.389310 0.000000 0.000000 0.000000 -20.323486 -5.589784 -69.255999 19.306270 -17.545684 86.164472 -6.524639 -16.450506 3.178820 0.000000 0.000000 0.000000 0.593912 -2.171566 44.671183 2.207289 0.440909 -31.931607 0.041362 2.701430 25.067258 1.001242 0.403177 -13.812609 0.000000 0.000000 0.000000 -14.643038 -26.132448 11.617486 -31.803961 -29.667423 3.742551 -8.688384 -55.249277 6.707268 0.000000 0.000000 0.000000 0.000000 0.000000 0.000000 1.614096 24.572172 8.881582 15.252467 25.449309 0.823813 5.053182 73.355194 6.368621 0.000000 0.000000 0.000000 0.000000 0.000000 0.000000 
-0.261644 30.317785 -4.651762 -2.109903 4.793742 -16.576471 17.668992 4.983508 -71.851812 -19.650312 19.199379 87.600712 10.552403 21.441002 -0.737326 0.000000 0.000000 0.000000 -20.183118 -5.402011 -68.381552 18.640428 -16.924450 86.664577 -6.652220 -16.643560 2.152023 0.000000 0.000000 0.000000 0.794362 -2.308240 45.600819 2.037502 0.475850 -32.073605 -0.029182 2.708735 25.595037 0.944185 0.439951 -13.837578 0.000000 0.000000 0.000000 -13.572013 -26.470995 11.599106 -32.810198 -30.221916 4.065982 -6.467772 -56.137962 5.649830 0.000000 0.000000 0.000000 0.000000 0.000000 0.000000 1.547499 24.030105 8.663029 17.288156 24.424141 1.011055 7.453816 71.096665 7.797659 0.000000 0.000000 0.000000 0.000000 0.000000 0.000000 
-0.263544 30.294413 -4.785349 -1.979654 4.414440 -17.843726 17.463950 4.727759 -70.638381 -18.679200 18.279614 88.339261 10.955491 22.214666 -0.553325 0.000000 0.000000 0.000000 -19.345018 -4.756452 -67.333551 17.542409 -16.040240 88.105478 -7.057970 -17.482174 1.072267 0.000000 0.000000 0.000000 1.184718 -2.606806 47.740442 1.492367 0.578977 -32.365290 -0.270093 3.108547 26.626348 1.466096 0.043974 -12.930612 0.000000 0.000000 0.000000 -11.672017 -26.772986 11.402593 -33.836976 -30.860208 4.429678 -2.290434 -56.617328 3.462463 0.000000 0.000000 0.000000 0.000000 0.000000 0.000000 1.273266 23.524106 8.430286 19.745815 24.199161 1.317031 7.170735 69.156485 7.319831 0.000000 0.000000 0.000000 0.000000 0.000000 0.000000 
-0.275987 30.246092 -4.948466 -1.999404 4.737986 -18.387752 16.938898 4.309295 -69.978327 -17.830495 17.328317 88.562592 11.194752 22.737242 -1.789557 0.000000 0.000000 0.000000 -19.299148 -4.684837 -66.891279 17.394884 -16.024017 88.691881 -7.206502 -17.807129 0.806331 0.000000 0.000000 0.000000 1.823501 -2.950958 48.538527 0.718705 0.715061 -32.603181 -0.351628 2.824161 27.146301 1.990601 -0.349949 -12.197643 0.000000 0.000000 0.000000 -10.779981 -26.895246 11.298194 -34.396964 -31.118241 4.608432 -0.632100 -56.409577 2.562169 0.000000 0.000000 0.000000 0.000000 0.000000 0.000000 1.614208 22.739389 8.177911 21.933542 24.116087 1.599560 8.710945 67.006735 8.025942 0.000000 0.000000 0.000000 0.000000 0.000000 0.000000 
-0.298895 30.023443 -5.136458 -2.006730 4.306379 -19.282070 17.052877 4.321070 -69.191769 -16.982963 16.519121 89.315839 11.348272 23.060944 -2.149580 0.000000 0.000000 0.000000 -18.571427 -4.194678 -66.524379 16.847254 -15.604668 89.592062 -7.497827 -18.463959 0.488373 0.000000 0.000000 0.000000 2.112125 -3.186459 49.956286 0.444971 0.764361 -32.758190 -0.470752 3.133643 27.712762 2.276935 -0.495592 -12.559665 0.000000 0.000000 0.000000 -9.207743 -26.747047 10.940417 -35.692117 -31.731788 5.040030 2.002568 -56.012231 1.147721 0.000000 0.000000 0.000000 0.000000 0.000000 0.000000 1.578144 22.327879 8.016130 24.407735 24.368282 1.976996 7.189336 65.917518 6.882636 0.000000 0.000000 0.000000 0.000000 0.000000 0.000000 
-0.319370 29.769541 -5.343163 -2.116863 4.485617 -19.193910 16.901870 4.256502 -69.644830 -16.009358 15.537268 90.097983 10.978669 22.365493 -3.055144 0.000000 0.000000 0.000000 -18.610727 -4.266890 -67.069923 16.764377 -15.749513 90.512578 -7.759832 -19.063379 0.275834 0.000000 0.000000 0.000000 2.324195 -3.321232 50.404748 0.494486 0.760248 -32.899188 -0.528504 2.999099 27.750373 1.945152 -0.148863 -14.078119 0.000000 0.000000 0.000000 -8.420916 -26.851284 10.846614 -36.643545 -31.808478 5.251718 4.234754 -55.274347 -0.031025 0.000000 0.000000 0.000000 0.000000 0.000000 0.000000 1.296463 22.138516 7.908311 26.290010 23.959453 2.158291 5.255433 65.430648 5.594158 0.000000 0.000000 0.000000 0.000000 0.000000 0.000000 
-0.350940 29.595400 -5.564960 -2.016293 4.462319 -19.392162 17.302954 4.502573 -69.341503 -15.170974 14.743407 91.071333 10.608369 21.642513 -4.226833 0.000000 0.000000 0.000000 -17.945616 -3.861663 -67.257380 16.111658 -15.241124 91.671033 -7.891814 -19.360321 -0.153423 0.000000 0.000000 0.000000 2.222221 -3.360384 51.592874 0.743120 0.734546 -33.378833 -0.657985 2.929838 28.158311 1.475496 0.193143 -14.746730 0.000000 0.000000 0.000000 -7.393164 -26.626511 10.560697 -37.683652 -32.419069 5.657320 6.588729 -54.820854 -1.243102 0.000000 0.000000 0.000000 0.000000 0.000000 0.000000 1.047702 22.306382 7.939862 27.896043 24.094314 2.402810 3.074733 65.452582 4.219909 0.000000 0.000000 0.000000 0.000000 0.000000 0.000000 
-0.388837 29.489191 -5.789409 -2.032628 4.784650 -19.298290 17.170074 4.401183 -69.205354 -14.198538 13.584940 91.363017 10.353281 21.122259 -5.269769 0.000000 0.000000 0.000000 -17.677976 -3.701969 -67.387317 15.636091 -14.781600 92.230757 -8.090313 -19.821443 -0.432762 0.000000 0.000000 0.000000 2.222661 -3.420761 52.395451 0.951605 0.720018 -33.949220 -0.704311 2.766848 28.511358 1.360293 0.249867 -14.598917 0.000000 0.000000 0.000000 -7.182688 -26.763699 10.584651 -37.935030 -32.784582 5.829433 8.381915 -54.307242 -2.143079 0.000000 0.000000 0.000000 0.000000 0.000000 0.000000 0.939496 22.183059 7.879843 29.279455 24.312132 2.640256 1.566571 65.463136 3.269577 0.000000 0.000000 0.000000 0.000000 0.000000 0.000000 
-0.423877 29.365503 -6.018992 -2.086521 4.906661 -19.681468 16.877429 4.192811 -69.068112 -13.396868 12.718641 92.055554 10.377347 21.180297 -5.606416 0.000000 0.000000 0.000000 -17.223308 -3.402475 -67.236651 14.878330 -14.007436 93.039061 -8.184166 -20.041479 -0.503114 0.000000 0.000000 0.000000 2.076726 -3.438880 53.632817 1.280606 0.674567 -34.083518 -0.485567 2.902771 28.420325 0.819636 0.576921 -14.629062 0.000000 0.000000 0.000000 -6.220912 -26.733391 10.400578 -38.204152 -33.348483 6.073852 9.806982 -53.629380 -2.827505 0.000000 0.000000 0.000000 0.000000 0.000000 0.000000 0.831636 22.306820 7.912359 30.799207 24.188401 2.823242 -0.039307 65.486370 2.258483 0.000000 0.000000 0.000000 0.000000 0.000000 0.000000 
